<svg width="46" height="41" viewBox="0 0 46 41" fill="none" xmlns="http://www.w3.org/2000/svg">
<g id="Button &#34;deletee">
<rect id="Rectangle 16" width="46" height="41" rx="10" fill="#D14242"/>
<g id="&#240;&#159;&#166;&#134; icon &#34;trash&#34;">
<path id="Vector" d="M21.4286 11C20.25 11 19.2857 11.9643 19.2857 13.1429H17.1429C15.9643 13.1429 15 14.1071 15 15.2857H30C30 14.1071 29.0357 13.1429 27.8571 13.1429H25.7143C25.7143 11.9643 24.75 11 23.5714 11H21.4286ZM17.1429 17.4286V27.7357C17.1429 27.9714 17.3143 28.1429 17.55 28.1429H27.4714C27.7071 28.1429 27.8786 27.9714 27.8786 27.7357V17.4286H25.7357V24.9286C25.7357 25.5286 25.2643 26 24.6643 26C24.0643 26 23.5929 25.5286 23.5929 24.9286V17.4286H21.45V24.9286C21.45 25.5286 20.9786 26 20.3786 26C19.7786 26 19.3071 25.5286 19.3071 24.9286V17.4286H17.1643H17.1429Z" fill="white"/>
</g>
</g>
</svg>
